<svg width="97" height="42" viewBox="0 0 97 42" fill="none" xmlns="http://www.w3.org/2000/svg">
<g clip-path="url(#clip0_2_107)">
<path d="M79.3064 41.3823H77.6201C77.4696 41.381 77.3257 41.3206 77.2193 41.2143C77.1129 41.1079 77.0526 40.9639 77.0513 40.8135V25.1133C77.0513 23.7516 77.5922 22.4456 78.5551 21.4827C79.518 20.5198 80.824 19.9789 82.1857 19.9789H91.8655C93.2273 19.9789 94.5332 20.5198 95.4961 21.4827C96.459 22.4456 97 23.7516 97 25.1133V29.1101C96.996 30.4692 96.4533 31.7713 95.4908 32.7309C94.5283 33.6905 93.2247 34.2294 91.8655 34.2294H83.3082C83.1578 34.2281 83.0138 34.1677 82.9074 34.0613C82.8011 33.9549 82.7407 33.811 82.7394 33.6606V31.9642C82.7394 31.8137 82.7984 31.6693 82.9039 31.5619C83.0093 31.4546 83.1527 31.393 83.3032 31.3903H93.0132C93.315 31.3903 93.6043 31.2705 93.8177 31.0571C94.031 30.8438 94.1509 30.5544 94.1509 30.2527V23.9706C94.1509 23.6689 94.031 23.3796 93.8177 23.1662C93.6043 22.9529 93.315 22.833 93.0132 22.833H81.0179C80.7161 22.833 80.4268 22.9529 80.2134 23.1662C80.0001 23.3796 79.8802 23.6689 79.8802 23.9706V40.8085C79.8802 40.9607 79.8198 41.1066 79.7122 41.2142C79.6045 41.3218 79.4586 41.3823 79.3064 41.3823Z" fill="#212121"/>
<path d="M12.9568 41.3823H5.13443C3.77265 41.3796 2.46748 40.8372 1.50502 39.8738C0.542564 38.9104 0.00135254 37.6046 2.26736e-05 36.2429V20.5477C-0.000641324 20.4737 0.0132846 20.4002 0.0410053 20.3316C0.0687261 20.2629 0.109699 20.2004 0.161583 20.1476C0.213468 20.0947 0.275249 20.0527 0.343398 20.0237C0.411547 19.9948 0.48473 19.9795 0.558767 19.9789H2.2803C2.43077 19.9789 2.57522 20.0379 2.68255 20.1434C2.78989 20.2488 2.85151 20.3922 2.85415 20.5427V37.3855C2.85415 37.536 2.88387 37.685 2.94161 37.824C2.99935 37.9629 3.08396 38.0891 3.1906 38.1953C3.29724 38.3015 3.4238 38.3855 3.56302 38.4426C3.70223 38.4998 3.85136 38.5288 4.00184 38.5282H12.982C13.0574 38.5268 13.1323 38.5404 13.2024 38.568C13.2725 38.5956 13.3365 38.6368 13.3908 38.6891C13.445 38.7415 13.4884 38.804 13.5184 38.8731C13.5485 38.9422 13.5646 39.0166 13.5659 39.092V40.8034C13.5659 40.9556 13.5055 41.1016 13.3979 41.2092C13.2902 41.3168 13.1443 41.3773 12.9921 41.3773L12.9568 41.3823Z" fill="#212121"/>
<path d="M67.608 41.3823H50.8558C50.1297 41.3833 49.4123 41.2252 48.754 40.9191C48.0956 40.613 47.5124 40.1663 47.0452 39.6104L33.4844 23.5881C33.2824 23.3516 33.0315 23.1616 32.7491 23.0313C32.4667 22.901 32.1594 22.8333 31.8484 22.833H20.3765C20.0744 22.833 19.7845 22.9527 19.5703 23.1659C19.3562 23.3791 19.2352 23.6685 19.2339 23.9706V37.3855C19.2339 37.6886 19.3543 37.9792 19.5686 38.1935C19.7829 38.4078 20.0735 38.5282 20.3765 38.5282H32.3166C32.4843 38.5287 32.65 38.4925 32.8022 38.422C32.9544 38.3516 33.0893 38.2486 33.1975 38.1205L35.6791 35.1858C35.776 35.0705 35.9146 34.9983 36.0647 34.9851C36.2147 34.9719 36.3639 35.0187 36.4794 35.1153L37.7832 36.2429C37.8985 36.3398 37.9707 36.4784 37.9839 36.6285C37.9971 36.7785 37.9503 36.9277 37.8537 37.0432L35.7093 39.5601C35.2271 40.1302 34.6265 40.5885 33.9494 40.9032C33.2722 41.2179 32.5347 41.3813 31.788 41.3823H21.5192C20.1561 41.3823 18.8489 40.8408 17.8851 39.877C16.9212 38.9132 16.3798 37.6059 16.3798 36.2429V25.1133C16.3824 23.7515 16.9249 22.4463 17.8883 21.4839C18.8517 20.5214 20.1574 19.9802 21.5192 19.9789H31.8484C32.5746 19.9786 33.2921 20.1364 33.951 20.4416C34.61 20.7467 35.1945 21.1917 35.664 21.7457L49.2198 37.753C49.4207 37.9912 49.6712 38.1826 49.9538 38.3139C50.2363 38.4452 50.5442 38.5132 50.8558 38.5131H68.7507C69.0529 38.5117 69.3422 38.3908 69.5554 38.1766C69.7686 37.9625 69.8883 37.6726 69.8883 37.3704V23.9706C69.8883 23.6689 69.7685 23.3796 69.5551 23.1662C69.3418 22.9529 69.0524 22.833 68.7507 22.833H50.3927C50.2269 22.8323 50.063 22.868 49.9125 22.9376C49.762 23.0072 49.6287 23.1089 49.5218 23.2357L47.0352 26.1754C46.9383 26.2907 46.7996 26.3629 46.6496 26.3761C46.4995 26.3893 46.3504 26.3425 46.2348 26.2459L44.926 25.1334C44.8104 25.0356 44.7381 24.8961 44.7249 24.7452C44.7117 24.5944 44.7587 24.4444 44.8556 24.328L46.9999 21.8112C47.4824 21.2417 48.0831 20.7842 48.7603 20.4704C49.4375 20.1565 50.1749 19.994 50.9212 19.994H67.608C68.9698 19.994 70.2757 20.5349 71.2386 21.4978C72.2015 22.4607 72.7424 23.7667 72.7424 25.1284V36.2429C72.7411 37.6047 72.1999 38.9104 71.2374 39.8738C70.275 40.8372 68.9698 41.3796 67.608 41.3823Z" fill="#212121"/>
<path d="M69.0326 14.2706H60.1884C60.1131 14.2681 60.0415 14.2371 59.9883 14.1838C59.935 14.1305 59.9039 14.059 59.9014 13.9837V11.7034C59.9027 11.6277 59.9334 11.5555 59.9869 11.502C60.0404 11.4484 60.1127 11.4178 60.1884 11.4165H69.3195C69.47 11.4152 69.6139 11.3548 69.7203 11.2484C69.8267 11.1421 69.887 10.9981 69.8884 10.8477V9.13622C69.889 9.06086 69.8748 8.98611 69.8466 8.91623C69.8184 8.84636 69.7767 8.78272 69.7238 8.72897C69.671 8.67521 69.6081 8.63239 69.5388 8.60294C69.4694 8.5735 69.3949 8.558 69.3195 8.55734H62.8965C61.9126 8.55734 60.969 8.16648 60.2732 7.47075C59.5775 6.77502 59.1866 5.8314 59.1866 4.84748V3.70986C59.1866 2.72594 59.5775 1.78233 60.2732 1.08659C60.969 0.390859 61.9126 0 62.8965 0L71.031 0C71.1063 0.00251202 71.1778 0.0335476 71.2311 0.0868213C71.2844 0.140095 71.3154 0.211624 71.3179 0.286923V2.5672C71.3166 2.64289 71.286 2.71513 71.2325 2.76866C71.1789 2.82219 71.1067 2.85283 71.031 2.85413H62.6146C62.4633 2.85412 62.3181 2.91389 62.2106 3.02042C62.1031 3.12695 62.0421 3.27162 62.0408 3.42294V5.13944C62.0421 5.29076 62.1031 5.43543 62.2106 5.54196C62.3181 5.64849 62.4633 5.70826 62.6146 5.70825H69.0326C70.0165 5.70825 70.9602 6.09911 71.6559 6.79484C72.3516 7.49058 72.7425 8.43419 72.7425 9.41811V10.5708C72.7425 11.5547 72.3516 12.4984 71.6559 13.1941C70.9602 13.8898 70.0165 14.2807 69.0326 14.2807V14.2706Z" fill="#212121"/>
<path d="M43.2649 14.0944L47.0453 3.23668C47.0827 3.12394 47.1551 3.02607 47.252 2.95727C47.3488 2.88848 47.4651 2.85235 47.5839 2.85412H50.438C50.5564 2.85388 50.672 2.89061 50.7685 2.95919C50.8651 3.02777 50.9378 3.12478 50.9766 3.23668L54.772 14.0944C54.7919 14.1506 54.8287 14.1992 54.8774 14.2334C54.9261 14.2677 54.9843 14.286 55.0439 14.2857H57.4852C57.5613 14.2857 57.6343 14.2555 57.6881 14.2017C57.7419 14.1479 57.7721 14.0749 57.7721 13.9988C57.777 13.9671 57.777 13.9349 57.7721 13.9032L53.7653 2.48666C53.5091 1.75749 53.0321 1.12623 52.4006 0.680595C51.7691 0.234959 51.0146 -0.00292425 50.2417 -3.9486e-06H47.7953C47.0224 -0.00292425 46.2678 0.234959 45.6364 0.680595C45.0049 1.12623 44.5279 1.75749 44.2717 2.48666L40.2447 13.8881C40.2204 13.9602 40.2252 14.039 40.2581 14.1076C40.291 14.1763 40.3494 14.2293 40.4209 14.2555C40.4525 14.2608 40.4848 14.2608 40.5165 14.2555H42.9327C42.9982 14.2721 43.0674 14.265 43.1282 14.2355C43.1889 14.2061 43.2374 14.1561 43.2649 14.0944Z" fill="#212121"/>
<path d="M24.3483 14.0944L28.1638 3.23668C28.2005 3.13027 28.2679 3.03712 28.3575 2.96902C28.4471 2.90092 28.5549 2.86093 28.6672 2.85412H31.5415C31.6599 2.85388 31.7755 2.89061 31.872 2.95919C31.9686 3.02777 32.0413 3.12478 32.0801 3.23668L35.8906 14.0944C35.9095 14.1502 35.9455 14.1986 35.9933 14.2329C36.0412 14.2672 36.0985 14.2857 36.1574 14.2857H38.5786C38.6238 14.2841 38.668 14.2719 38.7077 14.2503C38.7474 14.2286 38.7816 14.1981 38.8074 14.161C38.8333 14.1239 38.8502 14.0813 38.8568 14.0365C38.8634 13.9918 38.8595 13.9461 38.8454 13.9032L34.8184 2.50175C34.5689 1.77502 34.0997 1.14384 33.4756 0.695611C32.8515 0.247384 32.1035 0.00429048 31.3351 -8.82048e-06H28.8686C28.0952 -0.00517609 27.3396 0.231827 26.7076 0.677771C26.0757 1.12371 25.5992 1.75624 25.345 2.48665L21.3532 13.8881C21.338 13.931 21.3333 13.977 21.3394 14.0222C21.3455 14.0674 21.3623 14.1104 21.3884 14.1478C21.4144 14.1852 21.4491 14.2159 21.4893 14.2372C21.5296 14.2586 21.5744 14.27 21.62 14.2706H24.0412C24.1049 14.2817 24.1705 14.2702 24.2266 14.238C24.2827 14.2058 24.3257 14.155 24.3483 14.0944Z" fill="#212121"/>
<path d="M14.5124 9.64315e-06H12.8009C12.3766 9.13699e-05 11.9606 0.118333 11.5996 0.341487C11.2387 0.564641 10.947 0.883893 10.7572 1.26348L9.86124 3.05548C9.83652 3.10064 9.80012 3.13831 9.75584 3.16455C9.71155 3.1908 9.66103 3.20464 9.60955 3.20464C9.55808 3.20464 9.50755 3.1908 9.46327 3.16455C9.41899 3.13831 9.38258 3.10064 9.35787 3.05548L8.46186 1.26348C8.27211 0.883893 7.98042 0.564641 7.61946 0.341487C7.2585 0.118333 6.84254 9.13699e-05 6.41817 9.64315e-06H4.7067C4.1826 0.005071 3.67624 0.190525 3.27285 0.525159C2.86945 0.859793 2.59365 1.32318 2.49186 1.83732L0.070634 13.9183C0.0633144 13.9553 0.0633703 13.9934 0.0707985 14.0304C0.0782266 14.0674 0.092881 14.1026 0.113922 14.1339C0.134964 14.1652 0.161979 14.1921 0.19342 14.213C0.224862 14.2338 0.260112 14.2483 0.297152 14.2555H2.59757C2.66412 14.2556 2.72862 14.2326 2.78005 14.1903C2.83147 14.1481 2.86661 14.0893 2.87946 14.024L4.93322 3.07562C4.94606 3.01032 4.9812 2.95152 5.03263 2.90928C5.08405 2.86704 5.14856 2.84398 5.21511 2.84407H5.5121C5.56513 2.84381 5.6172 2.85826 5.66251 2.88581C5.70783 2.91335 5.74463 2.95292 5.76882 3.00011L7.32927 5.58745C7.48293 5.83954 7.69883 6.04787 7.95623 6.19244C8.21364 6.33701 8.5039 6.41296 8.79912 6.41298H10.4351C10.7296 6.41307 11.0192 6.33713 11.2759 6.1925C11.5325 6.04788 11.7474 5.83948 11.8999 5.58745L13.4604 3.02025C13.4845 2.97305 13.5213 2.93349 13.5667 2.90594C13.612 2.87839 13.664 2.86395 13.7171 2.8642H14.0141C14.0806 2.86412 14.1451 2.88717 14.1965 2.92941C14.248 2.97165 14.2831 3.03046 14.296 3.09575L16.3497 14.0492C16.3626 14.1145 16.3977 14.1733 16.4491 14.2155C16.5006 14.2577 16.5651 14.2808 16.6316 14.2807H18.8968C18.9729 14.2807 19.0459 14.2505 19.0997 14.1967C19.1535 14.1429 19.1837 14.0699 19.1837 13.9938C19.1862 13.9754 19.1862 13.9568 19.1837 13.9384L16.7625 1.85746C16.6646 1.33324 16.3856 0.860079 15.9744 0.520585C15.5631 0.181092 15.0457 -0.00315751 14.5124 9.64315e-06Z" fill="#212121"/>
</g>
<defs>
<clipPath id="clip0_2_107">
<rect width="97" height="41.3823" fill="white"/>
</clipPath>
</defs>
</svg>
